HIERARCHY
ROOT Hips
{
	OFFSET 0.00000 0.00000 0.00000
	CHANNELS 6 Xposition Yposition Zposition Zrotation Yrotation Xrotation 
	JOINT LHipJoint
	{
		OFFSET 0 0 0
		CHANNELS 3 Zrotation Yrotation Xrotation
		JOINT LeftHip
		{
			OFFSET 1.48831 -1.59570 0.95625
			CHANNELS 3 Zrotation Yrotation Xrotation
			JOINT LeftKnee
			{
				OFFSET 2.20856 -6.06797 0.00000
				CHANNELS 3 Zrotation Yrotation Xrotation
				JOINT LeftAnkle
				{
					OFFSET 2.62924 -7.22379 0.00000
					CHANNELS 3 Zrotation Yrotation Xrotation
					JOINT LeftToe
					{
						OFFSET 0.16802 -0.46163 2.41673
						CHANNELS 3 Zrotation Yrotation Xrotation
						End Site
						{
							OFFSET 0.00000 -0.00000 1.23760
						}
					}
				}
			}
		}
	}
	JOINT RHipJoint
	{
		OFFSET 0 0 0
		CHANNELS 3 Zrotation Yrotation Xrotation
		JOINT RightHip
		{
			OFFSET -1.56796 -1.59570 0.95625
			CHANNELS 3 Zrotation Yrotation Xrotation
			JOINT RightKnee
			{
				OFFSET -2.29239 -6.29829 0.00000
				CHANNELS 3 Zrotation Yrotation Xrotation
				JOINT RightAnkle
				{
					OFFSET -2.66963 -7.33475 0.00000
					CHANNELS 3 Zrotation Yrotation Xrotation
					JOINT RightToe
					{
						OFFSET -0.18185 -0.49964 2.34359
						CHANNELS 3 Zrotation Yrotation Xrotation
						End Site
						{
							OFFSET -0.00000 -0.00000 1.20477
						}
					}
				}
			}
		}
	}
	JOINT lowerback
	{
		OFFSET 0 0 0
		CHANNELS 3 Zrotation Yrotation Xrotation
		JOINT Chest
		{
			OFFSET 0.03505 2.15832 -0.34324
			CHANNELS 3 Zrotation Yrotation Xrotation
			JOINT Chest2
			{
				OFFSET -0.01089 2.17963 0.04689
				CHANNELS 3 Zrotation Yrotation Xrotation
				JOINT lowerneck
				{
					OFFSET 0 0 0
					CHANNELS 3 Zrotation Yrotation Xrotation
					JOINT Neck
					{
						OFFSET 0.04686 1.69404 0.22159
						CHANNELS 3 Zrotation Yrotation Xrotation
						JOINT Head
						{
							OFFSET 0.00265 1.69305 -0.01513
							CHANNELS 3 Zrotation Yrotation Xrotation
							End Site
							{
								OFFSET -0.00415 1.80215 -0.03034
							}
						}
					}
				}
				JOINT LeftCollar
				{
					OFFSET 0 0 0
					CHANNELS 3 Zrotation Yrotation Xrotation
					JOINT LeftShoulder
					{
						OFFSET 3.67184 1.11724 -0.19002
CHANNELS 3 Zrotation Xrotation Yrotation
						JOINT LeftElbow
						{
OFFSET 0 -5.177140 -0.000000
CHANNELS 3 Zrotation Xrotation Yrotation
							JOINT LeftWrist
							{
OFFSET 0 -3.436790 -0.000000
CHANNELS 3 Zrotation Xrotation Yrotation
								JOINT lhand
								{
									OFFSET 0 0 0
CHANNELS 3 Zrotation Xrotation Yrotation
									JOINT LFingers
									{
OFFSET 0 -0.573120 -0.000000
CHANNELS 3 Zrotation Xrotation Yrotation
										End Site
										{
OFFSET 0 -0.462060 -0.000000
										}
									}
								}
								JOINT LThumb
								{
OFFSET 0 0.000000 0.000000
CHANNELS 3 Zrotation Xrotation Yrotation
									End Site
									{
OFFSET 0 -0.469120 0.469120
									}
								}
							}
						}
					}
				}
				JOINT RightCollar
				{
					OFFSET 0 0 0
					CHANNELS 3 Zrotation Yrotation Xrotation
					JOINT RightShoulder
					{
						OFFSET -3.59596 0.95831 -0.26050
CHANNELS 3 Zrotation Xrotation Yrotation
						JOINT RightElbow
						{
OFFSET 0 -5.239080 -0.000000
CHANNELS 3 Zrotation Xrotation Yrotation
							JOINT RightWrist
							{
OFFSET 0 -3.464850 -0.000000
CHANNELS 3 Zrotation Xrotation Yrotation
								JOINT rhand
								{
									OFFSET 0 0 0
CHANNELS 3 Zrotation Xrotation Yrotation
									JOINT RFingers
									{
OFFSET 0 -0.608750 -0.000000
CHANNELS 3 Zrotation Xrotation Yrotation
										End Site
										{
OFFSET 0 -0.490790 -0.000000
										}
									}
								}
								JOINT RThumb
								{
OFFSET 0 0.000000 0.000000
CHANNELS 3 Zrotation Xrotation Yrotation
									End Site
									{
OFFSET 0 -0.498290 0.498290
									}
								}
							}
						}
					}
				}
			}
		}
	}
}
MOTION
Frames: 7
Frame Time: 0.008333333333333333
45.811600 15.887000 13.570200 -174.064000 -54.702900 173.581000 0.000000 0.000000 0.000000 -17.502500 3.693500 -3.609100 2.107500 9.086500 26.066200 1.973600 8.480600 -30.702800 0.091100 1.946500 5.357800 0.000000 0.000000 0.000000 19.815800 5.923100 -9.744300 -3.774800 -11.854500 35.219400 -1.744300 -6.837200 -28.202800 -0.044800 1.365300 -3.754600 2.163500 -0.256700 -1.776400 0.585600 -0.546400 4.077300 -0.643200 -0.230900 5.198100 0.973200 0.758700 -9.953200 -1.911600 0.540100 24.393600 -0.814500 -0.172400 9.308300 -0.000000 0.000000 0.000000 0.665600 -6.254100 -8.204700 10.442400 -17.428600 1.604900 15.599900 -18.529200 -7.034700 0.000000 0.000000 0.000000 -7.125000 0.000000 0.000000 -9.480100 37.131100 -1.855800 -0.000000 0.000000 0.000000 0.186300 -2.746300 5.369900 -13.269600 -21.681000 -2.552000 -19.320300 7.267200 5.360300 0.000000 0.000000 0.000000 7.125000 0.000000 -0.000000 6.154000 35.602100 1.427900
45.813572 15.887911 13.566428 -174.242119 -54.804497 173.752008 0.000000 0.000000 0.000000 -17.575075 4.089824 -3.865169 2.106699 9.084804 26.060934 1.793172 9.230097 -30.052727 0.020143 0.915806 2.517026 0.000000 0.000000 0.000000 19.700173 5.899399 -9.793399 -3.782590 -11.865346 35.257255 -1.744906 -6.874472 -28.229377 -0.046017 1.384637 -3.807756 2.018756 -0.258144 -1.809378 0.570287 -0.541699 4.082644 -0.577876 -0.233528 5.223328 0.916568 0.739748 -9.859654 -1.850348 0.505696 24.392761 -0.787520 -0.188107 9.289398 0.000000 0.000000 0.000000 0.772764 -6.324639 -8.105914 10.485711 -17.495731 1.617896 15.546962 -18.356957 -7.326922 0.000000 0.000000 0.000000 -7.125000 0.000000 0.000000 -9.571417 37.426327 -1.804071 0.000000 0.000000 0.000000 0.171569 -2.745343 5.270618 -13.248001 -21.649551 -2.544061 -19.293289 7.312589 5.381302 0.000000 0.000000 0.000000 7.125000 0.000000 0.000000 6.178689 35.622891 1.430528
45.815467 15.888656 13.563944 -174.326017 -54.866952 173.852576 0.000000 0.000000 0.000000 -17.617043 4.084128 -3.898925 2.098854 9.069109 26.011570 1.778689 9.245192 -29.969640 0.018767 0.884363 2.430619 0.000000 0.000000 0.000000 19.650346 5.908993 -9.833929 -3.788123 -11.873001 35.284325 -1.754458 -6.863112 -28.286568 -0.043910 1.352353 -3.718751 1.964868 -0.241729 -1.833930 0.554742 -0.516849 4.086847 -0.562441 -0.222642 5.242418 0.963035 0.715473 -9.854436 -1.879979 0.468038 24.418749 -0.810041 -0.205314 9.297147 0.000000 0.000000 0.000000 0.914424 -6.394652 -8.226592 10.570371 -17.626679 1.643449 15.629106 -18.418864 -7.299864 0.000000 0.000000 0.000000 -7.125000 0.000000 0.000000 -9.498149 37.403987 -1.795225 0.000000 0.000000 0.000000 0.191247 -2.750662 5.300012 -13.294502 -21.717218 -2.561249 -19.215668 7.280227 5.409647 0.000000 0.000000 0.000000 7.125000 0.000000 0.000000 6.246227 35.648902 1.442285
45.818084 15.890267 13.562450 -174.419356 -54.891658 173.953190 0.000000 0.000000 0.000000 -17.674779 4.083277 -3.912516 2.091731 9.054579 25.966271 1.761798 9.322190 -29.913744 0.015800 0.811834 2.231118 0.000000 0.000000 0.000000 19.596571 5.923783 -9.869827 -3.793051 -11.879785 35.307873 -1.761266 -6.832074 -28.314050 -0.041083 1.307817 -3.596102 1.918355 -0.224781 -1.838577 0.541046 -0.491596 4.094001 -0.548947 -0.211582 5.253314 0.978189 0.703197 -9.842220 -1.894383 0.452712 24.397896 -0.818876 -0.211817 9.287307 0.000000 0.000000 0.000000 1.037335 -6.494707 -8.353362 10.660064 -17.765364 1.670693 15.608026 -18.489968 -7.323753 0.000000 0.000000 0.000000 -7.125000 0.000000 0.000000 -9.519614 37.427036 -1.793923 0.000000 0.000000 0.000000 0.216562 -2.791540 5.542004 -13.380154 -21.841654 -2.593047 -19.157314 6.897728 5.400203 0.000000 0.000000 0.000000 7.125000 0.000000 0.000000 6.293755 35.635942 1.455444
45.820612 15.890978 13.560488 -174.489813 -54.917451 174.031372 0.000000 0.000000 0.000000 -17.709662 4.085668 -3.923973 2.085431 9.041783 25.926193 1.757353 9.307244 -29.874882 0.016300 0.824642 2.266483 0.000000 0.000000 0.000000 19.557802 5.930651 -9.907484 -3.796780 -11.884991 35.326320 -1.758732 -6.862813 -28.315578 -0.042668 1.332617 -3.664357 1.864687 -0.216717 -1.837141 0.546258 -0.479104 4.103939 -0.512717 -0.207631 5.263488 0.929263 0.694320 -9.803431 -1.848154 0.442588 24.326761 -0.794754 -0.213800 9.254649 0.000000 0.000000 0.000000 1.120745 -6.603053 -8.493266 10.753720 -17.909820 1.699451 15.547499 -18.629481 -7.271627 0.000000 0.000000 0.000000 -7.125000 0.000000 0.000000 -9.561988 37.369854 -1.815645 0.000000 0.000000 0.000000 0.235537 -2.815962 6.085405 -13.557141 -22.097970 -2.659257 -19.571698 6.288767 5.619157 0.000000 0.000000 0.000000 7.125000 0.000000 0.000000 5.973211 35.887405 1.343790
45.823707 15.891845 13.558610 -174.599491 -54.947144 174.152664 0.000000 0.000000 0.000000 -17.767963 4.075738 -3.946057 2.077213 9.025081 25.873827 1.744464 9.336563 -29.811415 0.015210 0.796458 2.188974 0.000000 0.000000 0.000000 19.495230 5.949916 -9.960273 -3.802969 -11.893532 35.356347 -1.759080 -6.889349 -28.333582 -0.043528 1.346423 -3.702460 1.789397 -0.203578 -1.841548 0.534444 -0.457919 4.113787 -0.481580 -0.199831 5.277069 0.950850 0.690607 -9.818632 -1.828278 0.431413 24.303088 -0.792487 -0.213493 9.249081 0.000000 0.000000 0.000000 1.181293 -6.737109 -8.530030 10.808000 -17.993321 1.716095 15.431384 -18.639261 -6.821206 0.000000 0.000000 0.000000 -7.125000 0.000000 0.000000 -9.587435 36.902799 -1.931478 0.000000 0.000000 0.000000 0.274238 -2.882288 6.347767 -13.714130 -22.324546 -2.718539 -19.498485 6.099888 5.590701 0.000000 0.000000 0.000000 7.125000 0.000000 0.000000 6.031032 35.853663 1.361910
45.826001 15.892801 13.556265 -174.682381 -54.966705 174.242720 0.000000 0.000000 0.000000 -17.817633 4.030380 -3.930041 2.068861 9.008055 25.820464 1.744776 9.335799 -29.812905 0.016636 0.833080 2.289620 0.000000 0.000000 0.000000 19.449306 5.966779 -9.999757 -3.809771 -11.902873 35.389256 -1.764570 -6.867277 -28.357478 -0.041298 1.311875 -3.607398 1.719124 -0.195330 -1.842942 0.528731 -0.443493 4.118166 -0.447178 -0.195298 5.282938 1.012977 0.696771 -9.867766 -1.826078 0.425898 24.356016 -0.803479 -0.211032 9.276990 0.000000 0.000000 0.000000 1.197001 -6.825246 -8.708299 10.899046 -18.133270 1.744381 15.492815 -18.737725 -6.950283 0.000000 0.000000 0.000000 -7.125000 0.000000 0.000000 -9.556501 37.038320 -1.893014 0.000000 0.000000 0.000000 0.304651 -2.965092 6.647314 -13.837816 -22.502338 -2.765752 -19.562397 5.861224 5.561405 0.000000 0.000000 0.000000 7.125000 0.000000 0.000000 5.974688 35.826043 1.353111
